<svg xmlns="http://www.w3.org/2000/svg" width="32.925" height="29.61" viewBox="0 0 32.925 29.61"><defs><style>.a{fill:#fff;}</style></defs><g transform="translate(9577 22813)"><path class="a" d="M16.605,14.3l-.55.548.1-.133c.555.629,1.067,1.3,1.669,1.878,1.669,1.617,3.393,3.188,5.064,4.794a1.649,1.649,0,0,1,.406,2.3,1.948,1.948,0,0,1-2.077,1.018.506.506,0,0,1-.35-.233,2.7,2.7,0,0,0-2.932-1.762.727.727,0,0,1-.156-.026c.31-2.1-.867-3.361-3.263-3.468a3.03,3.03,0,0,0-.792-2.473,2.862,2.862,0,0,0-2.417-.767,9.291,9.291,0,0,0-.144-1.6,2.762,2.762,0,0,0-4.58-1.091c-.9.853-1.746,1.769-2.655,2.7a9.648,9.648,0,0,1-1.177-1.27c-.806-1.249-1.6-2.5-2.277-3.806A5.3,5.3,0,0,1,.035,8C.319,4.155,3.966.661,7.928.086a7.955,7.955,0,0,1,5.708,1.387c.734.492,1.459,1,2.228,1.529L9.618,9.21a4.04,4.04,0,0,0,2.822,1.436A6.413,6.413,0,0,0,17,8.96c1.021-.855,1.92-1.864,2.92-2.836.049.047.184.172.315.305q4.661,4.7,9.322,9.406a.844.844,0,0,1,.233.569A1.99,1.99,0,0,1,28.724,18.4a1.666,1.666,0,0,1-1.823-.359q-3.4-3.382-6.808-6.759c-.068-.065-.144-.124-.247-.21l-.562.62c.11.126.233.277.359.41q3.447,3.393,6.894,6.78a.543.543,0,0,1,.17.347,2.736,2.736,0,0,1-.436,1.615,1.676,1.676,0,0,1-2.412.247c-2.037-1.911-4.081-3.815-6.108-5.736a15.614,15.614,0,0,1-1.028-1.186Z" transform="translate(-9577.006 -22813.002)"/><path class="a" d="M55.519,4.8c-.282.371-.524.7-.785,1.025a13.151,13.151,0,0,1-4.025,3.466,4.559,4.559,0,0,1-3.216.44,5.4,5.4,0,0,1-.932-.4c.133-.165.193-.254.268-.329,2-2.011,3.948-4.081,6.027-6.008A10.352,10.352,0,0,1,58.507.139a8.5,8.5,0,0,1,6.542,1.909,9.248,9.248,0,0,1,3.288,4.573,7.209,7.209,0,0,1-.128,4.477,20.688,20.688,0,0,1-2.27,4.225Z" transform="translate(-9612.71 -22813.049)"/><path class="a" d="M24.931,59.391a4.034,4.034,0,0,1-.536.977c-.727.813-1.506,1.58-2.286,2.342a1.99,1.99,0,0,1-2.445.193,1.955,1.955,0,0,1-.634-2.293,2.258,2.258,0,0,1,.392-.578c.746-.776,1.487-1.559,2.261-2.3a1.8,1.8,0,0,1,2.1-.354A2,2,0,0,1,24.931,59.391Z" transform="translate(-9591.486 -22856.855)"/><path class="a" d="M52.8,88.165a1.594,1.594,0,0,1-.508,1.191c-.739.783-1.485,1.564-2.256,2.317a1.955,1.955,0,0,1-2.666.04,1.846,1.846,0,0,1-.058-2.7c.757-.8,1.524-1.6,2.331-2.359a1.82,1.82,0,0,1,2.046-.324A1.973,1.973,0,0,1,52.8,88.165Z" transform="translate(-9612.856 -22879.076)"/><path class="a" d="M34.686,78.155a1.821,1.821,0,0,1-1.892-1.137,1.739,1.739,0,0,1,.359-2.023c.739-.764,1.466-1.541,2.219-2.289a1.927,1.927,0,0,1,2.722-.037,1.857,1.857,0,0,1-.033,2.729c-.291.294-.578.592-.869.888-.426.431-.869.851-1.282,1.3a1.613,1.613,0,0,1-1.224.571Z" transform="translate(-9602.016 -22868.314)"/><path class="a" d="M64.753,101.108a1.909,1.909,0,0,1,1.781,1.21,1.694,1.694,0,0,1-.359,1.955c-.792.825-1.594,1.648-2.424,2.435a1.916,1.916,0,0,1-2.564-.1,1.848,1.848,0,0,1-.086-2.58c.757-.8,1.536-1.582,2.31-2.37A1.788,1.788,0,0,1,64.753,101.108Z" transform="translate(-9623.492 -22890.543)"/></g></svg>