<svg xmlns="http://www.w3.org/2000/svg" width="1900.111" height="912.061" viewBox="0 0 1900.111 912.061"><defs><style>.a{opacity:0.2;}.b{fill:#036;}.c{fill:#c12525;}</style></defs><g transform="translate(-1.407 -3375.034)"><g class="a" transform="matrix(0.883, -0.469, 0.469, 0.883, 1777.516, 3417.392)"><path class="b" d="M45.53,39.207l-1.508,1.5.262-.364C45.8,42.07,47.211,43.9,48.86,45.5c4.576,4.436,9.306,8.744,13.889,13.148,2.2,2.1,2.429,3.688,1.112,6.315a5.343,5.343,0,0,1-5.695,2.793,1.387,1.387,0,0,1-.959-.639c-1.5-3.618-4.257-5.056-8.041-4.832a1.994,1.994,0,0,1-.428-.07c.85-5.752-2.378-9.217-8.948-9.511a8.309,8.309,0,0,0-2.173-6.782c-1.841-1.956-4.276-2.256-6.628-2.1a25.482,25.482,0,0,0-.4-4.391,7.574,7.574,0,0,0-12.56-2.991c-2.474,2.339-4.787,4.851-7.28,7.4a26.459,26.459,0,0,1-3.228-3.483C5.313,36.919,3.14,33.486,1.28,29.907a14.545,14.545,0,0,1-1.2-7.977C.865,11.391,10.868,1.81,21.734.231a21.817,21.817,0,0,1,15.653,3.8c2.013,1.349,4,2.748,6.11,4.193L26.367,25.254a11.079,11.079,0,0,0,7.74,3.937c4.858.262,8.948-1.636,12.5-4.621,2.8-2.346,5.267-5.113,8.009-7.779.134.128.5.473.863.837q12.783,12.886,25.566,25.8a2.314,2.314,0,0,1,.639,1.56c-.109,2.256-.537,4.41-2.921,5.465a4.57,4.57,0,0,1-5-.984Q64.436,40.191,55.1,30.93c-.185-.179-.4-.339-.678-.575l-1.54,1.7c.3.345.639.761.984,1.125q9.453,9.306,18.906,18.593a1.489,1.489,0,0,1,.467.952,7.5,7.5,0,0,1-1.2,4.429,4.6,4.6,0,0,1-6.615.678C59.84,52.591,54.235,47.369,48.674,42.1a42.818,42.818,0,0,1-2.819-3.253Z" transform="translate(-0.006 -0.002)"/><path class="b" d="M71.129,13.049c-.773,1.016-1.438,1.917-2.154,2.812a36.067,36.067,0,0,1-11.038,9.5,12.5,12.5,0,0,1-8.82,1.208,14.816,14.816,0,0,1-2.557-1.093c.364-.454.531-.7.735-.9C52.785,19.063,58.122,13.388,63.824,8.1c4.34-4.033,9.5-7.024,15.5-7.83,6.66-.888,12.655,1.093,17.941,5.235a25.363,25.363,0,0,1,9.019,12.54,19.772,19.772,0,0,1-.352,12.278c-1.368,4.206-3.9,7.753-6.225,11.588Z" transform="translate(-16.804 -0.024)"/><path class="b" d="M35.462,63.24a11.064,11.064,0,0,1-1.47,2.678c-1.994,2.231-4.129,4.334-6.27,6.424a5.458,5.458,0,0,1-6.7.531,5.363,5.363,0,0,1-1.739-6.289A6.194,6.194,0,0,1,20.353,65c2.045-2.128,4.078-4.276,6.2-6.321a4.941,4.941,0,0,1,5.752-.972C34.414,58.625,35.347,60.351,35.462,63.24Z" transform="translate(-6.819 -20.635)"/><path class="b" d="M63.337,91.668a4.372,4.372,0,0,1-1.393,3.266c-2.026,2.148-4.071,4.289-6.187,6.353a5.363,5.363,0,0,1-7.312.109,5.062,5.062,0,0,1-.16-7.408c2.077-2.205,4.18-4.4,6.392-6.468a4.992,4.992,0,0,1,5.612-.888A5.411,5.411,0,0,1,63.337,91.668Z" transform="translate(-16.873 -31.089)"/><path class="b" d="M38.294,88.663c-2.678,0-4.3-1.023-5.19-3.119A4.768,4.768,0,0,1,34.089,80c2.026-2.1,4.02-4.225,6.085-6.277a5.286,5.286,0,0,1,7.465-.1,5.092,5.092,0,0,1-.089,7.485c-.8.805-1.585,1.623-2.384,2.435C44,84.719,42.781,85.87,41.65,87.1a4.423,4.423,0,0,1-3.356,1.566Z" transform="translate(-11.773 -26.027)"/><path class="b" d="M71.958,101.109a5.235,5.235,0,0,1,4.883,3.317,4.647,4.647,0,0,1-.984,5.363c-2.173,2.263-4.372,4.519-6.647,6.679a5.255,5.255,0,0,1-7.031-.275,5.069,5.069,0,0,1-.236-7.076c2.077-2.2,4.212-4.34,6.334-6.5A4.9,4.9,0,0,1,71.958,101.109Z" transform="translate(-21.877 -36.484)"/></g><g class="a" transform="matrix(0.799, 0.602, -0.602, 0.799, 1801.938, 3940.283)"><path class="c" d="M62.883,54.154,60.8,56.229l.362-.5c2.1,2.384,4.044,4.918,6.321,7.116C73.8,68.969,80.338,74.92,86.668,81c3.037,2.9,3.355,5.094,1.536,8.723a7.381,7.381,0,0,1-7.867,3.858,1.916,1.916,0,0,1-1.324-.883c-2.066-5-5.88-6.984-11.107-6.675a2.755,2.755,0,0,1-.592-.1c1.174-7.946-3.284-12.731-12.36-13.137a11.478,11.478,0,0,0-3-9.367c-2.543-2.7-5.907-3.117-9.156-2.9a35.2,35.2,0,0,0-.547-6.065A10.462,10.462,0,0,0,24.9,50.323c-3.417,3.231-6.613,6.7-10.056,10.215a36.549,36.549,0,0,1-4.459-4.812C7.332,50.994,4.33,46.253,1.761,41.308-.005,37.962-.173,34.139.11,30.29,1.187,15.731,15,2.5,30.013.316,37.906-.832,45.075,1.2,51.635,5.569c2.781,1.863,5.527,3.8,8.44,5.792L36.414,34.881c3.011,3.2,6.33,5.209,10.692,5.439,6.71.362,12.36-2.26,17.269-6.383,3.867-3.24,7.275-7.063,11.063-10.745.185.177.7.653,1.192,1.157q17.658,17.8,35.315,35.633a3.2,3.2,0,0,1,.883,2.154c-.15,3.117-.742,6.092-4.035,7.549a6.313,6.313,0,0,1-6.9-1.36Q89,55.514,76.1,42.721c-.256-.247-.547-.468-.936-.795l-2.128,2.348c.415.477.883,1.051,1.36,1.554q13.058,12.855,26.116,25.683a2.057,2.057,0,0,1,.645,1.316,10.365,10.365,0,0,1-1.651,6.118,6.348,6.348,0,0,1-9.138.936c-7.716-7.24-15.459-14.453-23.14-21.728a59.148,59.148,0,0,1-3.894-4.494Z" transform="translate(0 0)"/><path class="c" d="M33.938,17.938c-1.068,1.4-1.987,2.649-2.975,3.885-4.308,5.3-9.164,9.915-15.247,13.129A17.269,17.269,0,0,1,3.532,36.619,20.466,20.466,0,0,1,0,35.11c.5-.627.733-.962,1.015-1.245C8.6,26.246,15.971,18.406,23.847,11.1,29.842,5.533,36.975,1.4,45.257.289,54.456-.939,62.738,1.8,70.039,7.52,75.884,12.093,80.263,17.69,82.5,24.842a27.311,27.311,0,0,1-.486,16.96c-1.889,5.809-5.386,10.709-8.6,16.007Z" transform="translate(41.102 0.054)"/><path class="c" d="M22.9,8.368a15.283,15.283,0,0,1-2.031,3.7c-2.755,3.081-5.7,5.986-8.661,8.873a7.54,7.54,0,0,1-9.261.733,7.407,7.407,0,0,1-2.4-8.688A8.555,8.555,0,0,1,2.024,10.8c2.825-2.94,5.633-5.907,8.564-8.732A6.825,6.825,0,0,1,18.534.723C21.448,1.994,22.737,4.378,22.9,8.368Z" transform="translate(16.67 50.483)"/><path class="c" d="M22.91,7.615a6.039,6.039,0,0,1-1.925,4.512c-2.8,2.967-5.624,5.924-8.546,8.776a7.407,7.407,0,0,1-10.1.15A6.992,6.992,0,0,1,2.118,10.82c2.869-3.046,5.774-6.074,8.829-8.935A6.9,6.9,0,0,1,18.7.658,7.474,7.474,0,0,1,22.91,7.615Z" transform="translate(41.271 76.063)"/><path class="c" d="M7.844,22.845c-3.7,0-5.942-1.413-7.169-4.308a6.586,6.586,0,0,1,1.36-7.663c2.8-2.9,5.553-5.836,8.405-8.67a7.3,7.3,0,0,1,10.312-.141c2.984,2.993,2.931,7.248-.124,10.339-1.1,1.112-2.19,2.243-3.293,3.364-1.616,1.633-3.293,3.223-4.856,4.918a6.11,6.11,0,0,1-4.635,2.163Z" transform="translate(28.791 63.676)"/><path class="c" d="M15.665,0A7.231,7.231,0,0,1,22.41,4.585a6.419,6.419,0,0,1-1.36,7.407c-3,3.125-6.039,6.242-9.182,9.226C9.3,23.655,4.7,23.382,2.156,20.839a7,7,0,0,1-.327-9.774C4.7,8.028,7.648,5.071,10.579,2.086A6.772,6.772,0,0,1,15.665,0Z" transform="translate(53.513 89.264)"/></g><g class="a" transform="translate(39.462 3543) rotate(25)"><path class="c" d="M60.429,52.041l-2,1.994.348-.484c2.019,2.291,3.886,4.726,6.075,6.838C70.924,66.278,77.2,72,83.286,77.842c2.919,2.783,3.224,4.9,1.476,8.382a7.093,7.093,0,0,1-7.56,3.708,1.841,1.841,0,0,1-1.273-.848c-1.985-4.8-5.651-6.711-10.673-6.414a2.647,2.647,0,0,1-.568-.093c1.128-7.636-3.156-12.234-11.878-12.625a11.03,11.03,0,0,0-2.885-9c-2.443-2.6-5.676-2.995-8.8-2.791a33.825,33.825,0,0,0-.526-5.829,10.054,10.054,0,0,0-16.672-3.971c-3.283,3.105-6.355,6.44-9.664,9.816a35.123,35.123,0,0,1-4.285-4.624C7.046,49,4.161,44.448,1.692,39.7,0,36.481-.166,32.807.105,29.108,1.141,15.117,14.419,2.4,28.842.3c7.585-1.1,14.474.848,20.778,5.048,2.673,1.79,5.311,3.648,8.111,5.566L34.993,33.52c2.893,3.08,6.083,5.006,10.275,5.226,6.448.348,11.878-2.172,16.6-6.134,3.716-3.114,6.991-6.787,10.631-10.325.178.17.67.628,1.145,1.111q16.969,17.1,33.937,34.243a3.071,3.071,0,0,1,.848,2.07c-.144,2.995-.713,5.854-3.877,7.254a6.066,6.066,0,0,1-6.635-1.307Q85.526,53.348,73.13,41.054c-.246-.238-.526-.45-.9-.764l-2.045,2.257c.4.458.848,1.01,1.307,1.493q12.548,12.353,25.1,24.681a1.977,1.977,0,0,1,.619,1.264,9.961,9.961,0,0,1-1.587,5.88,6.1,6.1,0,0,1-8.781.9C79.425,69.807,71.985,62.875,64.6,55.884a56.84,56.84,0,0,1-3.742-4.319Z" transform="translate(0 0)"/><path class="c" d="M32.614,17.238c-1.027,1.349-1.909,2.545-2.859,3.733A47.876,47.876,0,0,1,15.1,33.587a16.6,16.6,0,0,1-11.708,1.6A19.667,19.667,0,0,1,0,33.74c.484-.6.7-.925.976-1.2,7.288-7.322,14.372-14.856,21.94-21.873C28.677,5.317,35.532,1.346,43.491.277,52.331-.9,60.29,1.728,67.306,7.226A33.667,33.667,0,0,1,79.277,23.872a26.246,26.246,0,0,1-.467,16.3C77,45.753,73.635,50.462,70.547,55.553Z" transform="translate(39.498 0.052)"/><path class="c" d="M22,8.042A14.687,14.687,0,0,1,20.051,11.6c-2.647,2.961-5.481,5.752-8.323,8.527a7.246,7.246,0,0,1-8.9.7A7.118,7.118,0,0,1,.52,12.479a8.221,8.221,0,0,1,1.425-2.1C4.66,7.55,7.358,4.7,10.175,1.984A6.558,6.558,0,0,1,17.811.694C20.611,1.916,21.849,4.207,22,8.042Z" transform="translate(16.02 48.513)"/><path class="c" d="M22.016,7.318a5.8,5.8,0,0,1-1.85,4.335c-2.69,2.851-5.4,5.693-8.213,8.433a7.118,7.118,0,0,1-9.706.144A6.72,6.72,0,0,1,2.036,10.4C4.793,7.471,7.584,4.56,10.52,1.812A6.626,6.626,0,0,1,17.969.632,7.183,7.183,0,0,1,22.016,7.318Z" transform="translate(39.66 73.095)"/><path class="c" d="M7.538,21.954c-3.555,0-5.71-1.357-6.889-4.14a6.329,6.329,0,0,1,1.307-7.364c2.69-2.783,5.337-5.608,8.077-8.332a7.017,7.017,0,0,1,9.91-.136,6.759,6.759,0,0,1-.119,9.935c-1.061,1.069-2.1,2.155-3.165,3.233-1.553,1.57-3.165,3.1-4.666,4.726a5.871,5.871,0,0,1-4.454,2.079Z" transform="translate(27.667 61.191)"/><path class="c" d="M15.053,0a6.949,6.949,0,0,1,6.482,4.4,6.168,6.168,0,0,1-1.307,7.118c-2.885,3-5.8,6-8.824,8.866-2.469,2.342-6.889,2.079-9.333-.365a6.728,6.728,0,0,1-.314-9.392c2.757-2.919,5.591-5.761,8.408-8.629A6.507,6.507,0,0,1,15.053,0Z" transform="translate(51.425 85.781)"/></g><g class="a" transform="matrix(0.921, 0.391, -0.391, 0.921, 115.11, 4153.074)"><path class="b" d="M63.295,54.506l-2.1,2.088.364-.506c2.115,2.4,4.07,4.949,6.362,7.162,6.362,6.167,12.938,12.156,19.309,18.278,3.057,2.915,3.377,5.127,1.546,8.779a7.429,7.429,0,0,1-7.917,3.883,1.928,1.928,0,0,1-1.333-.889c-2.079-5.029-5.918-7.029-11.178-6.718a2.772,2.772,0,0,1-.6-.1c1.182-8-3.306-12.813-12.44-13.222a11.552,11.552,0,0,0-3.021-9.428c-2.559-2.719-5.945-3.137-9.215-2.923a35.426,35.426,0,0,0-.551-6.1A10.53,10.53,0,0,0,25.068,50.65c-3.439,3.252-6.656,6.744-10.121,10.281-1.484-1.564-3.288-3-4.487-4.843-3.075-4.763-6.1-9.535-8.681-14.511C0,38.209-.168,34.362.116,30.488,1.2,15.835,15.107,2.515,30.213.32c7.944-1.155,15.159.889,21.761,5.287,2.8,1.875,5.563,3.821,8.495,5.829L36.655,35.108c3.03,3.226,6.371,5.243,10.761,5.474,6.753.364,12.44-2.275,17.381-6.424,3.892-3.261,7.322-7.109,11.134-10.814.187.178.7.658,1.2,1.164Q94.9,42.421,112.673,60.371a3.217,3.217,0,0,1,.889,2.168c-.151,3.137-.746,6.131-4.061,7.6a6.353,6.353,0,0,1-6.949-1.368Q89.579,55.875,76.6,43c-.258-.249-.551-.471-.942-.8l-2.141,2.364c.418.48.889,1.057,1.368,1.564q13.142,12.938,26.284,25.849a2.07,2.07,0,0,1,.649,1.324,10.432,10.432,0,0,1-1.662,6.158,6.389,6.389,0,0,1-9.2.942C83.19,73.113,75.4,65.853,67.667,58.531a59.53,59.53,0,0,1-3.919-4.523Z" transform="translate(-0.006 -0.002)"/><path class="b" d="M80.717,18.116c-1.075,1.413-2,2.666-2.995,3.91-4.336,5.332-9.224,9.979-15.346,13.213a17.381,17.381,0,0,1-12.262,1.679A20.6,20.6,0,0,1,46.56,35.4c.506-.631.738-.969,1.022-1.253,7.633-7.668,15.053-15.559,22.979-22.908C76.594,5.632,83.774,1.473,92.109.354c9.259-1.235,17.594,1.519,24.943,7.278,5.882,4.6,10.29,10.237,12.538,17.434a27.488,27.488,0,0,1-.489,17.07c-1.9,5.847-5.42,10.779-8.655,16.11Z" transform="translate(-5.192 -0.009)"/><path class="b" d="M41.931,65.6a15.382,15.382,0,0,1-2.044,3.723c-2.772,3.1-5.74,6.025-8.717,8.93A7.589,7.589,0,0,1,21.849,79a7.455,7.455,0,0,1-2.417-8.744,8.611,8.611,0,0,1,1.493-2.2c2.843-2.959,5.669-5.945,8.619-8.788a6.869,6.869,0,0,1,8-1.351C40.473,59.188,41.771,61.588,41.931,65.6Z" transform="translate(-2.109 -6.373)"/><path class="b" d="M69.809,93.819a6.078,6.078,0,0,1-1.937,4.541c-2.817,2.986-5.66,5.962-8.6,8.833a7.455,7.455,0,0,1-10.165.151,7.038,7.038,0,0,1-.222-10.3c2.888-3.066,5.811-6.113,8.886-8.992a6.939,6.939,0,0,1,7.8-1.235A7.523,7.523,0,0,1,69.809,93.819Z" transform="translate(-5.214 -9.601)"/><path class="b" d="M40.51,95.117c-3.723,0-5.98-1.422-7.215-4.336a6.629,6.629,0,0,1,1.368-7.713c2.817-2.915,5.589-5.874,8.459-8.726A7.349,7.349,0,0,1,53.5,74.2c3,3.012,2.95,7.3-.124,10.405-1.111,1.12-2.2,2.257-3.314,3.385-1.626,1.644-3.314,3.243-4.887,4.949a6.149,6.149,0,0,1-4.665,2.177Z" transform="translate(-3.639 -8.037)"/><path class="b" d="M76.383,101.11a7.278,7.278,0,0,1,6.789,4.612,6.46,6.46,0,0,1-1.368,7.455c-3.021,3.146-6.078,6.282-9.241,9.286-2.586,2.452-7.215,2.177-9.774-.382a7.046,7.046,0,0,1-.329-9.837c2.888-3.057,5.856-6.033,8.806-9.037A6.815,6.815,0,0,1,76.383,101.11Z" transform="translate(-6.759 -11.266)"/></g></g></svg>