<svg xmlns="http://www.w3.org/2000/svg" width="361.45" height="88.736" viewBox="0 0 361.45 88.736"><defs><style>.a{fill:#00b67a;}.b{fill:#005128;}</style></defs><path d="M178.16,300.7h36.567v6.807h-14.4v38.374h-7.892V307.507H178.1l.06-6.807Zm35,12.47h6.747V319.5h.12a7.948,7.948,0,0,1,1.265-2.59,10.014,10.014,0,0,1,2.229-2.289,9.859,9.859,0,0,1,2.892-1.687,8.416,8.416,0,0,1,3.193-.663c.843,0,1.446.06,1.747.06a5.275,5.275,0,0,0,.964.12v6.928a12.18,12.18,0,0,0-1.566-.241,13.7,13.7,0,0,0-1.566-.121,8.361,8.361,0,0,0-3.434.723,8.7,8.7,0,0,0-2.831,2.108,11.423,11.423,0,0,0-1.928,3.494,14.743,14.743,0,0,0-.723,4.819V345.7H213.04l.12-32.531Zm52.29,32.711h-7.109V341.3h-.121a10.093,10.093,0,0,1-3.976,3.976,10.494,10.494,0,0,1-5.361,1.506c-4.277,0-7.41-1.024-9.337-3.193-1.928-2.108-2.892-5.361-2.892-9.639V313.17h7.229v20.06c0,2.892.542,4.94,1.687,6.084a5.947,5.947,0,0,0,4.639,1.807,8.886,8.886,0,0,0,3.8-.723,6.547,6.547,0,0,0,2.47-1.868,7.328,7.328,0,0,0,1.386-2.831,13.375,13.375,0,0,0,.422-3.554V313.17h7.229v32.711ZM277.74,335.4a5.686,5.686,0,0,0,2.41,4.458,9.487,9.487,0,0,0,5,1.265,16.556,16.556,0,0,0,2.289-.181,10.087,10.087,0,0,0,2.41-.6,4.239,4.239,0,0,0,1.868-1.325,3.085,3.085,0,0,0,.663-2.229,3.242,3.242,0,0,0-1.024-2.289,8.535,8.535,0,0,0-2.41-1.446,20.9,20.9,0,0,0-3.374-.9c-1.265-.241-2.53-.542-3.855-.843s-2.651-.663-3.916-1.084a11.223,11.223,0,0,1-3.374-1.747,7.514,7.514,0,0,1-2.349-2.771,8.66,8.66,0,0,1-.9-4.157,7.123,7.123,0,0,1,1.325-4.458,9.606,9.606,0,0,1,3.313-2.892,15.039,15.039,0,0,1,4.458-1.566,25.526,25.526,0,0,1,4.639-.422,20.727,20.727,0,0,1,4.819.542,12.184,12.184,0,0,1,4.157,1.747,9.545,9.545,0,0,1,3.072,3.133,10.851,10.851,0,0,1,1.566,4.639h-7.53a4.637,4.637,0,0,0-2.349-3.494,9.7,9.7,0,0,0-4.277-.9c-.482,0-1.145.06-1.807.121a10.646,10.646,0,0,0-1.988.482A4.711,4.711,0,0,0,279,319.5a2.41,2.41,0,0,0-.663,1.747,2.648,2.648,0,0,0,.9,2.108,8.19,8.19,0,0,0,2.41,1.386,20.892,20.892,0,0,0,3.374.9c1.265.241,2.59.542,3.916.843s2.59.663,3.855,1.084a10.553,10.553,0,0,1,3.374,1.747,8.689,8.689,0,0,1,2.41,2.711,8.326,8.326,0,0,1,.9,4.036,8.781,8.781,0,0,1-1.325,4.94,11.266,11.266,0,0,1-3.434,3.313,17.029,17.029,0,0,1-4.7,1.868,25.239,25.239,0,0,1-5.121.6,21.576,21.576,0,0,1-5.723-.723,14.574,14.574,0,0,1-4.578-2.108A10.113,10.113,0,0,1,271.6,340.4a11.606,11.606,0,0,1-1.2-5.06h7.289v.06Zm23.8-22.229h5.482v-9.88h7.229v9.819h6.506v5.362h-6.506v17.47a18.536,18.536,0,0,0,.121,1.988,4.174,4.174,0,0,0,.422,1.386,2.354,2.354,0,0,0,1.024.843,5.374,5.374,0,0,0,1.928.3,12.592,12.592,0,0,0,1.506-.06,13.06,13.06,0,0,0,1.506-.241v5.6c-.783.121-1.566.181-2.349.241a14.967,14.967,0,0,1-2.349.12,15.571,15.571,0,0,1-4.578-.542,6.578,6.578,0,0,1-2.711-1.566,5.6,5.6,0,0,1-1.325-2.59,20.56,20.56,0,0,1-.422-3.615V318.532h-5.482V313.05h0Zm24.277,0h6.807v4.458h.121a8.949,8.949,0,0,1,4.217-4.1,13.658,13.658,0,0,1,5.9-1.265,14.844,14.844,0,0,1,6.747,1.386,12.658,12.658,0,0,1,4.759,3.735,15.579,15.579,0,0,1,2.831,5.542,24.336,24.336,0,0,1,.121,13.133,17.724,17.724,0,0,1-2.59,5.482,12.815,12.815,0,0,1-4.4,3.8,13,13,0,0,1-6.265,1.446,18.388,18.388,0,0,1-3.133-.3,13.334,13.334,0,0,1-3.012-.9,10.806,10.806,0,0,1-2.651-1.627,9.179,9.179,0,0,1-2.048-2.289h-.12V357.99h-7.229V313.17Zm25.241,16.386a14.679,14.679,0,0,0-.6-4.277A10.91,10.91,0,0,0,348.7,321.6a9.638,9.638,0,0,0-2.831-2.59,7.706,7.706,0,0,0-3.916-.964,8,8,0,0,0-6.868,3.133,14.268,14.268,0,0,0-2.289,8.434,15.6,15.6,0,0,0,.6,4.578,10.2,10.2,0,0,0,1.807,3.614,8.608,8.608,0,0,0,2.892,2.41,8.168,8.168,0,0,0,3.916.9,8.015,8.015,0,0,0,4.157-1.024,9.71,9.71,0,0,0,2.831-2.59,10.6,10.6,0,0,0,1.566-3.675,20.686,20.686,0,0,0,.482-4.277ZM363.765,300.7h7.229v6.807h-7.229Zm0,12.47h7.229v32.711h-7.229V313.17ZM377.44,300.7h7.229v45.181H377.44V300.7Zm29.277,46.085a17.214,17.214,0,0,1-6.988-1.325,15.862,15.862,0,0,1-5.181-3.554,15.475,15.475,0,0,1-3.193-5.482,21.415,21.415,0,0,1-1.145-6.928,19.566,19.566,0,0,1,1.145-6.868,16.022,16.022,0,0,1,3.193-5.482,14.449,14.449,0,0,1,5.181-3.554,18.286,18.286,0,0,1,6.988-1.325,17.214,17.214,0,0,1,6.988,1.325,14.993,14.993,0,0,1,5.181,3.554,15.473,15.473,0,0,1,3.193,5.482,21.047,21.047,0,0,1,1.145,6.868,19.671,19.671,0,0,1-1.145,6.928,17.051,17.051,0,0,1-3.193,5.482,14.449,14.449,0,0,1-5.181,3.554,18.063,18.063,0,0,1-6.988,1.325Zm0-5.723a8.332,8.332,0,0,0,4.157-1.024,8.721,8.721,0,0,0,2.892-2.651,11.356,11.356,0,0,0,1.687-3.675,16.437,16.437,0,0,0,0-8.374,10.8,10.8,0,0,0-1.687-3.675,9.152,9.152,0,0,0-2.892-2.59,8.5,8.5,0,0,0-4.157-1.024,8.332,8.332,0,0,0-4.157,1.024,9.226,9.226,0,0,0-2.892,2.59,10.8,10.8,0,0,0-1.687,3.675,16.436,16.436,0,0,0,0,8.374,10.8,10.8,0,0,0,1.687,3.675,9.344,9.344,0,0,0,2.892,2.651,7.889,7.889,0,0,0,4.157,1.024Zm18.675-27.892h5.482v-9.88H438.1v9.819h6.506v5.362H438.1v17.47a18.52,18.52,0,0,0,.121,1.988,4.174,4.174,0,0,0,.422,1.386,2.354,2.354,0,0,0,1.024.843,5.374,5.374,0,0,0,1.928.3,12.592,12.592,0,0,0,1.506-.06,13.061,13.061,0,0,0,1.506-.241v5.6c-.783.121-1.566.181-2.349.241a14.967,14.967,0,0,1-2.349.12,15.571,15.571,0,0,1-4.578-.542,6.578,6.578,0,0,1-2.711-1.566,5.6,5.6,0,0,1-1.325-2.59,20.56,20.56,0,0,1-.422-3.615V318.532h-5.482V313.05h0Z" transform="translate(-83.159 -269.254)"/><path class="a" d="M107.067,279.946H73.995L63.814,248.5,53.573,279.946l-33.073-.06,26.747,19.458L37.006,330.79l26.747-19.458L90.5,330.79,80.32,299.344Z" transform="translate(-20.5 -248.5)"/><path class="b" d="M111.2,340.009l-2.289-7.108L92.4,344.888Z" transform="translate(-49.086 -282.056)"/></svg>