<svg xmlns="http://www.w3.org/2000/svg" width="321.749" height="60.233" viewBox="0 0 321.749 60.233"><defs><style>.a{fill:#77c043;}.b{fill:#fff;}.c{fill:#dcdce5;}</style></defs><rect class="a" width="60.233" height="60.233"/><path class="b" d="M27.6,6.86,22.611,22.109H6.01l13.436,9.753L14.21,47.356,27.286,37.8l13.7,9.552L36.953,35.128l-9.336,2.388L48.951,22.224l-16.112-.086Z" transform="translate(2.636 3.009)"/><rect class="a" width="60.233" height="60.233" transform="translate(65.383)"/><path class="b" d="M73.038,6.86,68.061,22.109H51.46L64.9,31.862,59.66,47.356,72.736,37.8l13.681,9.552L82.4,35.128l-9.351,2.388L94.4,22.224l-16.112-.086Z" transform="translate(22.568 3.009)"/><rect class="a" width="60.233" height="60.233" transform="translate(130.751)"/><path class="b" d="M118.488,6.86l-4.977,15.249H96.91l13.422,9.753L105.11,47.356,118.186,37.8l13.681,9.552-4.028-12.228L118.5,37.516l21.334-15.292-16.112-.086Z" transform="translate(42.501 3.009)"/><rect class="a" width="60.233" height="60.233" transform="translate(196.134)"/><path class="b" d="M163.928,6.86l-4.977,15.249h-16.6l13.436,9.753L150.55,47.356,163.641,37.8l13.681,9.552-4.028-12.228-9.336,2.388,21.334-15.292-16.112-.086Z" transform="translate(62.429 3.009)"/><rect class="c" width="60.233" height="60.233" transform="translate(261.516)"/><path class="b" d="M209.378,6.86,204.4,22.109H187.8l13.436,9.753L196,47.356,209.076,37.8l13.681,9.552-4.014-12.228-9.351,2.388,21.348-15.292-16.112-.086Z" transform="translate(82.362 3.009)"/></svg>